<svg xmlns="http://www.w3.org/2000/svg" viewBox="0 0 100 100">
    <!-- Background grid -->
    <path d="M20,80 L80,80 M20,60 L80,60 M20,40 L80,40 M20,20 L80,20"
          stroke="#94a3b8" stroke-width="0.5" fill="none"/>

    <!-- Rising bars -->
    <rect x="25" y="50" width="10" height="30" fill="#f1f5f9" stroke="#0f766e" stroke-width="2"/>
    <rect x="45" y="35" width="10" height="45" fill="#0d9488" stroke="#0f766e" stroke-width="2"/>
    <rect x="65" y="20" width="10" height="60" fill="#0f766e" stroke="#0f766e" stroke-width="2"/>

    <!-- Upward arrow -->
    <path d="M50,15 L60,25 L53,25 L53,35 L47,35 L47,25 L40,25 Z"
          fill="#0d9488"/>

    <!-- Enhancement sparkles -->
    <path d="M75,15 L77,17 L75,19 L73,17 Z" fill="#0f766e"/>
    <path d="M25,25 L27,27 L25,29 L23,27 Z" fill="#0f766e"/>
    <path d="M85,35 L87,37 L85,39 L83,37 Z" fill="#0f766e"/>
</svg>
