<svg xmlns="http://www.w3.org/2000/svg" viewBox="0 0 100 100">
    <!-- Background -->
    <rect width="100" height="100" fill="transparent"/>

    <!-- Main analytics screen frame -->
    <rect x="10" y="15" width="80" height="70" rx="4" fill="#f1f5f9" stroke="#0f766e" stroke-width="2"/>

    <!-- Graph grid lines -->
    <line x1="20" y1="25" x2="20" y2="65" stroke="#94a3b8" stroke-width="0.5"/>
    <line x1="40" y1="25" x2="40" y2="65" stroke="#94a3b8" stroke-width="0.5"/>
    <line x1="60" y1="25" x2="60" y2="65" stroke="#94a3b8" stroke-width="0.5"/>
    <line x1="80" y1="25" x2="80" y2="65" stroke="#94a3b8" stroke-width="0.5"/>

    <line x1="20" y1="25" x2="80" y2="25" stroke="#94a3b8" stroke-width="0.5"/>
    <line x1="20" y1="45" x2="80" y2="45" stroke="#94a3b8" stroke-width="0.5"/>
    <line x1="20" y1="65" x2="80" y2="65" stroke="#94a3b8" stroke-width="0.5"/>

    <!-- Main trend line -->
    <path d="M20,55 C30,45 40,50 50,35 S70,25 80,30"
          fill="none"
          stroke="#0d9488"
          stroke-width="3"
          stroke-linecap="round"/>

    <!-- Data points -->
    <circle cx="20" cy="55" r="3" fill="#0d9488"/>
    <circle cx="35" cy="47" r="3" fill="#0d9488"/>
    <circle cx="50" cy="35" r="3" fill="#0d9488"/>
    <circle cx="65" cy="28" r="3" fill="#0d9488"/>
    <circle cx="80" cy="30" r="3" fill="#0d9488"/>

    <!-- Mini stats bars at bottom -->
    <rect x="20" y="75" width="10" height="4" rx="1" fill="#0f766e"/>
    <rect x="35" y="75" width="10" height="4" rx="1" fill="#0f766e"/>
    <rect x="50" y="75" width="10" height="4" rx="1" fill="#0f766e"/>
    <rect x="65" y="75" width="10" height="4" rx="1" fill="#0f766e"/>
</svg>
